<svg xmlns="http://www.w3.org/2000/svg" viewBox="0 0 512 512">
  <rect width="512" height="512" rx="120" fill="#0f172a"/>
  <defs>
    <linearGradient id="leafGrad" x1="0%" y1="0%" x2="100%" y2="100%">
      <stop offset="0%" style="stop-color:#4ade80;stop-opacity:1" />
      <stop offset="100%" style="stop-color:#16a34a;stop-opacity:1" />
    </linearGradient>
    <linearGradient id="accentGrad" x1="0%" y1="0%" x2="100%" y2="100%">
      <stop offset="0%" style="stop-color:#fbbf24;stop-opacity:1" />
      <stop offset="100%" style="stop-color:#d97706;stop-opacity:1" />
    </linearGradient>
  </defs>
  <!-- Background Glow -->
  <circle cx="256" cy="256" r="180" fill="url(#leafGrad)" opacity="0.15" />
  <!-- Stylized Leaf Structure -->
  <path d="M256 110c-65 0-115 55-115 130 0 110 115 180 115 180s115-70 115-180c0-75-50-130-115-130z" fill="url(#leafGrad)"/>
  <path d="M256 110c0 0-40 80-40 130 0 50 40 80 40 80s40-30 40-80c0-50-40-130-40-130z" fill="#ffffff" opacity="0.25"/>
  <!-- Golden AI Spark/Sun -->
  <circle cx="370" cy="160" r="45" fill="url(#accentGrad)"/>
  <path d="M370 140v40M350 160h40" stroke="#ffffff" stroke-width="8" stroke-linecap="round" opacity="0.6"/>
</svg>